<svg width="136" height="34" viewBox="0 0 136 34" fill="none" xmlns="http://www.w3.org/2000/svg">
<path d="M23.8558 1.97974H18.4755L11.9874 19.2103L5.49944 1.97974H0.198242L11.9874 33.2623L23.8558 1.97974Z" fill="#83898F"/>
<path d="M35.8038 1.97974H30.8191V33.2624H35.8038V1.97974Z" fill="#83898F"/>
<path d="M53.6852 25.2326C59.6985 25.2326 64.6832 20.0467 64.6832 13.6062C64.6832 7.24926 59.7776 1.97974 53.6852 1.97974C47.5928 1.97974 42.6873 7.24926 42.6873 13.6062C42.6873 20.0467 47.6719 25.2326 53.6852 25.2326ZM53.6852 7.16562C57.0875 7.16562 59.7776 10.0095 59.7776 13.6062C59.7776 17.2028 57.0875 20.0467 53.6852 20.0467C50.283 20.0467 47.5928 17.2028 47.5928 13.6062C47.5928 10.0095 50.283 7.16562 53.6852 7.16562Z" fill="#83898F"/>
<path d="M63.3374 28.0762H43.7942V33.2604H63.3374V28.0762Z" fill="#83898F"/>
<path d="M87.4697 28.0765H76.5508V1.97974H71.6453V33.2623H87.4697V28.0765Z" fill="#83898F"/>
<path d="M114.529 28.0765H99.7327V20.214H111.997V15.0281H99.7327V7.24926H114.529V1.97974H94.748V33.2623H114.529V28.0765Z" fill="#83898F"/>
<path d="M125.447 33.2623H130.353V7.24926H135.258V1.97974H120.463V7.24926H125.447V33.2623Z" fill="#83898F"/>
<path d="M53.6849 26.5708C60.4103 26.5708 65.8697 20.7994 65.8697 13.6897C65.8697 6.58005 60.4103 0.808655 53.6849 0.808655C46.9595 0.808655 41.5001 6.58005 41.5001 13.6897C41.421 20.7994 46.9595 26.5708 53.6849 26.5708ZM53.6849 1.4778C60.0938 1.4778 65.2367 6.91463 65.2367 13.6897C65.2367 20.3812 60.0938 25.9017 53.6849 25.9017C47.276 25.9017 42.1331 20.4649 42.1331 13.6897C42.1331 6.91463 47.276 1.4778 53.6849 1.4778Z" fill="#83898F"/>
</svg>
