<svg width="183" height="41" viewBox="0 0 183 41" fill="none" xmlns="http://www.w3.org/2000/svg">
<path d="M89 1.52944C89 0.977153 89.4477 0.529438 90 0.529438H181.265C181.817 0.529438 182.265 0.977153 182.265 1.52944V39.5C182.265 40.0523 181.817 40.5 181.265 40.5H90C89.4477 40.5 89 40.0523 89 39.5V1.52944Z" fill="#83898F"/>
<path d="M0 10.4668H4.34551L8.96262 24.3293C10.3885 19.7328 13.8513 9.73715 15.1414 7.25649C17.1105 3.38957 20.5733 1.63851 24.8509 2.29516L24.3756 6.6728C21.7276 6.23504 19.8943 7.11057 18.8079 9.44531C16.6352 13.6041 11.2033 31.7713 11.1354 31.9172L10.8638 32.1361L7.33305 32.2091L0 10.4668Z" fill="#83898F"/>
<path d="M27.2953 13.9686H24.5793V10.0287H34.2889V13.9686H31.3692V27.6852H27.2953V13.9686ZM24.5793 28.3418H34.2889V32.2817H24.5793V28.3418Z" fill="#83898F"/>
<path d="M42.5737 10.4664H46.7834L53.3017 23.3075V10.4664H57.3757V32.1358L57.104 32.2817H53.1659L46.6477 19.3676V32.2817H42.5737V10.4664V10.4664Z" fill="#83898F"/>
<path d="M165.105 27.9136V24.5574H171.216V20.1797H158.587V24.5574H160.963V32.2913H174.271V27.9136H165.105Z" fill="#121B25"/>
<path d="M165.105 14.49H173.66V10.1123H160.963V19.3783H165.105V14.49Z" fill="#121B25"/>
<path d="M102.774 14.8538H96.5955V10.4031H113.027V14.8538H106.848V32.2914H102.706V14.8538H102.774Z" fill="#121B25"/>
<path d="M78.2208 19.2213H62.4683V23.4515H78.2208V19.2213Z" fill="#83898F"/>
<path d="M145.482 22.078V26.0179H150.099C149.012 27.1853 147.654 27.9149 146.025 27.9149C142.698 27.9149 139.982 24.9965 139.982 21.4214C139.982 17.8463 142.698 14.9279 146.025 14.9279C148.333 14.9279 150.438 16.3141 151.457 18.5759L155.055 16.4601C153.29 12.812 149.827 10.5502 146.025 10.5502C140.389 10.5502 135.908 15.4386 135.908 21.4214C135.908 27.4042 140.457 32.3655 146.025 32.3655C149.895 32.3655 153.494 30.2496 155.123 26.0909V22.151H145.482V22.078Z" fill="#121B25"/>
<path d="M126.131 10.6956L122.329 10.7685C122.329 10.7685 117.508 26.8929 115.132 32.4379H117.508H119.613H129.051H130.341H131.767H133.396L126.131 10.6956ZM121.039 28.498C122.329 24.9229 123.619 20.983 124.366 18.5753L127.693 28.498H121.039Z" fill="#121B25"/>
</svg>
