<svg width="147" height="45" viewBox="0 0 147 45" fill="none" xmlns="http://www.w3.org/2000/svg">
<path d="M1.86231 0.352173L1.8623 44.6601" stroke="#83898F" stroke-width="3"/>
<path d="M21.1852 16.5244H26.3653V18.5298H18.7456V6.41431H21.1852V16.5244Z" fill="#83898F"/>
<path d="M41.2811 16.0334H37.0036L36.1904 18.5298H33.5963L38.0039 6.41431H40.2646L44.6965 18.5298H42.1024L41.2811 16.0334ZM37.6623 14.0114H40.6224L39.1342 9.47645L37.6623 14.0114Z" fill="#83898F"/>
<path d="M56.205 15.5259L58.8886 6.41431H61.6047L57.4817 18.5298H54.9364L50.8297 6.41431H53.5377L56.205 15.5259Z" fill="#83898F"/>
<path d="M76.5123 13.2792H71.8283V16.5244H77.3255V18.5298H69.3886V6.41431H77.3092V8.43632H71.8283V11.3237H76.5123V13.2792Z" fill="#83898F"/>
<path d="M95.0468 18.5298H92.6072L87.8581 10.5582V18.5298H85.4185V6.41431H87.8581L92.6154 14.4025V6.41431H95.0468V18.5298Z" fill="#83898F"/>
<path d="M103.839 18.5298V6.41431H107.482C108.523 6.41431 109.453 6.65562 110.272 7.13824C111.096 7.61531 111.738 8.29764 112.199 9.18522C112.66 10.0672 112.89 11.0713 112.89 12.1974V12.7549C112.89 13.8811 112.662 14.8824 112.207 15.7588C111.757 16.6353 111.12 17.3149 110.296 17.7975C109.472 18.2801 108.542 18.5242 107.507 18.5298H103.839ZM106.279 8.43632V16.5244H107.458C108.412 16.5244 109.141 16.2054 109.645 15.5675C110.15 14.9295 110.407 14.017 110.418 12.8298V12.1891C110.418 10.9576 110.169 10.0256 109.67 9.39324C109.171 8.7553 108.442 8.43632 107.482 8.43632H106.279Z" fill="#83898F"/>
<path d="M128.456 13.2792H123.772V16.5244H129.27V18.5298H121.333V6.41431H129.253V8.43632H123.772V11.3237H128.456V13.2792Z" fill="#83898F"/>
<path d="M141.746 14.0946H139.802V18.5298H137.363V6.41431H141.762C143.161 6.41431 144.24 6.73328 144.999 7.37123C145.758 8.00917 146.137 8.91062 146.137 10.0756C146.137 10.9021 145.961 11.5928 145.609 12.1475C145.262 12.6967 144.733 13.1349 144.023 13.4622L146.584 18.4133V18.5298H143.966L141.746 14.0946ZM139.802 12.0726H141.77C142.383 12.0726 142.857 11.9145 143.193 11.5983C143.529 11.2766 143.698 10.8356 143.698 10.2753C143.698 9.70389 143.538 9.25456 143.218 8.92726C142.903 8.59997 142.418 8.43632 141.762 8.43632H139.802V12.0726Z" fill="#83898F"/>
<path d="M25.4301 37.6193H21.1527L20.3395 40.1157H17.7454L22.1529 28.0002H24.4136L28.8456 40.1157H26.2515L25.4301 37.6193ZM21.8114 35.5973H24.7714L23.2833 31.0624L21.8114 35.5973Z" fill="#83898F"/>
<path d="M45.8025 38.5846C45.3634 39.1227 44.7426 39.5415 43.9403 39.8411C43.1379 40.1351 42.2488 40.2821 41.273 40.2821C40.2483 40.2821 39.3484 40.0546 38.5731 39.5998C37.8033 39.1393 37.2069 38.4736 36.7841 37.6027C36.3666 36.7318 36.1525 35.7083 36.1416 34.5322V33.7085C36.1416 32.4991 36.3395 31.4535 36.7353 30.5714C37.1365 29.6838 37.7111 29.0071 38.4593 28.5411C39.2128 28.0696 40.0938 27.8338 41.1022 27.8338C42.5063 27.8338 43.6041 28.1777 44.3957 28.8656C45.1872 29.5479 45.6561 30.5437 45.8025 31.8529H43.4279C43.3195 31.1594 43.0783 30.6519 42.7042 30.3301C42.3355 30.0084 41.8259 29.8475 41.1754 29.8475C40.3459 29.8475 39.7143 30.1665 39.2806 30.8044C38.8469 31.4424 38.6273 32.391 38.6219 33.6502V34.4241C38.6219 35.6944 38.8577 36.6541 39.3294 37.3031C39.8011 37.9522 40.4923 38.2767 41.4031 38.2767C42.3193 38.2767 42.9725 38.077 43.3629 37.6776V35.589H41.1428V33.7501H45.8025V38.5846Z" fill="#83898F"/>
<path d="M61.5721 34.8651H56.8881V38.1103H62.3853V40.1157H54.4485V28.0002H62.3691V30.0222H56.8881V32.9096H61.5721V34.8651Z" fill="#83898F"/>
<path d="M80.1067 40.1157H77.667L72.9179 32.1441V40.1157H70.4783V28.0002H72.9179L77.6752 35.9884V28.0002H80.1067V40.1157Z" fill="#83898F"/>
<path d="M98.1939 36.08C98.1018 37.3836 97.6301 38.4098 96.779 39.1587C95.9332 39.9076 94.8164 40.2821 93.4286 40.2821C91.9106 40.2821 90.7152 39.7606 89.8423 38.7177C88.9749 37.6693 88.5412 36.2325 88.5412 34.4074V33.6669C88.5412 32.5019 88.7418 31.4756 89.143 30.5881C89.5442 29.7005 90.1161 29.0209 90.8588 28.5494C91.607 28.0723 92.4744 27.8338 93.4611 27.8338C94.8273 27.8338 95.9278 28.2082 96.7627 28.9571C97.5976 29.706 98.0801 30.7573 98.2102 32.1108H95.7706C95.7109 31.3286 95.4968 30.7628 95.1281 30.4133C94.7649 30.0583 94.2092 29.8808 93.4611 29.8808C92.6479 29.8808 92.038 30.1803 91.6314 30.7794C91.2302 31.373 91.0242 32.2967 91.0133 33.5504V34.4657C91.0133 35.7748 91.2058 36.7318 91.5907 37.3364C91.9811 37.9411 92.5937 38.2434 93.4286 38.2434C94.1821 38.2434 94.7432 38.0687 95.1119 37.7192C95.486 37.3642 95.7001 36.8178 95.7543 36.08H98.1939Z" fill="#83898F"/>
<path d="M110.54 33.4588L113.004 28.0002H115.671L111.784 35.7222V40.1157H109.304V35.7222L105.417 28.0002H108.092L110.54 33.4588Z" fill="#83898F"/>
</svg>
