<svg width="166" height="89" viewBox="0 0 166 89" fill="none" xmlns="http://www.w3.org/2000/svg">
<path d="M16.5686 36.8325C7.56398 36.8325 0.236084 44.7162 0.236084 54.4038C0.236084 64.0915 7.56398 71.9752 16.5686 71.9752C25.5733 71.9752 32.9012 64.0915 32.9012 54.4038C32.9012 44.7162 25.5733 36.8325 16.5686 36.8325ZM25.449 62.4212C24.9522 62.8889 24.3312 63.3566 23.7102 63.7574C23.0892 64.2251 22.344 64.5592 21.5988 64.9601C20.8536 65.2941 19.9842 65.5613 19.1148 65.7618C18.2453 65.9622 17.3138 66.0958 16.3202 66.0958C14.8919 66.0958 13.5878 65.8954 12.5321 65.5613C11.4763 65.2273 10.6069 64.7596 9.92381 64.0915C9.2407 63.4902 8.7439 62.7553 8.43339 61.8867C8.12289 61.0182 7.93659 60.1496 7.93659 59.1475C7.93659 57.7444 8.2471 56.6086 8.806 55.6733C9.36491 54.7379 10.1722 53.9362 11.1037 53.2681C10.6069 52.7336 10.2343 52.0655 9.92381 51.2637C9.61331 50.5288 9.42701 49.7271 9.42701 48.7917C9.42701 47.8563 9.61331 46.921 9.92381 46.1193C10.2343 45.3175 10.7311 44.5826 11.29 43.9813C11.9111 43.38 12.5942 42.9123 13.4015 42.5783C14.2088 42.2442 15.0782 42.1106 16.0097 42.1106C17.0654 42.1106 17.9969 42.311 18.8043 42.6451C19.6737 42.9791 20.3568 43.4468 20.9778 44.0481C21.5988 44.6494 22.0335 45.3843 22.344 46.186C22.6545 46.9878 22.8408 47.9232 22.8408 48.9253C22.8408 50.0611 22.5303 51.0633 21.9714 51.9318C21.4125 52.8004 20.7294 53.5353 19.9221 54.2034L22.7787 56.8091C23.0271 56.5418 23.2755 56.2746 23.5239 55.9405C23.7723 55.6733 24.0828 55.2724 24.4554 54.7379L28.6783 58.613C28.2436 59.2811 27.7468 59.9492 27.1879 60.5505C26.629 61.2854 26.0701 61.8867 25.449 62.4212ZM23.8344 59.2811C23.4618 59.682 23.0271 60.016 22.6545 60.3501C21.9093 60.8845 20.9778 61.419 19.9221 61.8867C18.8664 62.3544 17.6243 62.5548 16.196 62.5548C15.6992 62.5548 15.2024 62.488 14.6435 62.3544C14.1467 62.2208 13.6499 62.0203 13.2152 61.7531C12.7805 61.4858 12.4079 61.085 12.1594 60.6173C11.8489 60.1496 11.7248 59.5483 11.7248 58.8802C11.7248 57.878 11.9732 57.1431 12.5321 56.5418C13.0289 55.9405 13.7741 55.406 14.7677 54.8715L15.6992 54.337L20.6673 58.7466L21.2883 58.2789L16.4444 53.9362C17.6243 53.2681 18.5558 52.5331 19.239 51.7314C19.9221 50.9296 20.2947 49.9943 20.2947 48.8585C20.2947 48.2572 20.1705 47.7227 19.9842 47.2551C19.7358 46.7874 19.4874 46.3197 19.0527 45.9856C18.6801 45.6516 18.2453 45.3843 17.6864 45.1839C17.1896 44.9834 16.6307 44.9167 16.0097 44.9167C15.5129 44.9167 15.0161 44.9834 14.5193 45.1839C14.0225 45.3843 13.5878 45.6516 13.2152 45.9856C12.8426 46.3197 12.5321 46.7874 12.2837 47.2551C12.0353 47.7227 11.9732 48.324 11.9732 48.9253C11.9732 49.7939 12.1595 50.5288 12.5942 51.1301C13.0289 51.7982 13.5878 52.3995 14.333 53.0676L15.1403 53.8026L14.3951 54.2034C13.9604 54.4707 13.4636 54.7379 13.091 55.0052C12.6563 55.3392 12.3458 55.6733 12.0353 56.0073C11.7248 56.4082 11.4763 56.8091 11.3521 57.2768C11.1658 57.7444 11.1037 58.2789 11.1037 58.8134C11.1037 59.5483 11.2279 60.2164 11.5384 60.8177C11.8489 61.419 12.2215 61.8199 12.7184 62.2208C13.2152 62.5548 13.7741 62.8889 14.3951 63.0225C15.0161 63.2229 15.6992 63.2898 16.3823 63.2898C17.8106 63.2898 19.1148 63.0225 20.2947 62.5548C21.4125 62.0871 22.4061 61.4858 23.2134 60.8845C24.1449 60.1496 24.9523 59.3479 25.6975 58.4125L25.0765 57.9449C24.5796 58.4794 24.207 58.8802 23.8344 59.2811ZM14.7677 52.5331C13.8983 51.7982 13.4015 51.1301 13.091 50.5956C12.8426 50.0611 12.7184 49.5266 12.7184 48.9921C12.7184 48.0568 13.0289 47.255 13.5878 46.6537C14.2088 46.0524 14.954 45.7184 15.8855 45.7184C16.3202 45.7184 16.7549 45.7852 17.1275 45.9188C17.5622 46.0524 17.8727 46.2529 18.2454 46.5201C18.5559 46.7873 18.8042 47.1214 18.9906 47.5223C19.1769 47.9231 19.3011 48.3908 19.3011 48.9253C19.3011 49.9943 18.9906 50.8628 18.3695 51.531C17.7485 52.1991 16.8791 52.8004 15.6992 53.4685L14.7677 52.5331ZM16.9412 49.7939C17.1275 49.5266 17.2517 49.1926 17.2517 48.7917C17.2517 47.9232 16.8791 47.5223 16.0718 47.5223C15.6992 47.5223 15.4508 47.6559 15.2024 47.8563C14.954 48.1236 14.8919 48.3908 14.8919 48.7917C14.8919 49.1258 14.954 49.393 15.0782 49.727C15.2024 49.9943 15.5129 50.3283 15.8855 50.7292C16.3823 50.3952 16.6928 50.0611 16.9412 49.7939ZM14.4572 58.7466C14.4572 59.2811 14.6435 59.682 15.0782 59.9492C15.4508 60.2165 15.9476 60.3501 16.4444 60.3501C16.7549 60.3501 17.0654 60.3501 17.438 60.2833C17.7485 60.2165 18.059 60.1496 18.3695 60.016L15.3266 57.2099C14.7056 57.6108 14.4572 58.1453 14.4572 58.7466Z" fill="#83898F"/>
<path d="M17.2515 20.7307H15.8853V38.4357H17.2515V20.7307Z" fill="#83898F"/>
<path d="M17.2515 68.5012H15.8853V88.1437H17.2515V68.5012Z" fill="#83898F"/>
<path d="M58.3 24.934C55.8736 24.934 53.6784 24.4026 51.7142 23.3396C49.7732 22.2535 48.248 20.7746 47.1389 18.9029C46.0297 17.008 45.4751 14.8821 45.4751 12.5251C45.4751 10.1681 46.0297 8.05375 47.1389 6.18202C48.248 4.28718 49.7847 2.80827 51.7489 1.74531C53.713 0.659245 55.9083 0.116211 58.3346 0.116211C60.2295 0.116211 61.9625 0.439721 63.5339 1.08674C65.1052 1.71065 66.4455 2.64652 67.5546 3.89434L65.3016 6.07803C63.4761 4.16008 61.2 3.20111 58.4733 3.20111C56.6708 3.20111 55.0417 3.60549 53.586 4.41427C52.1302 5.22304 50.9863 6.34377 50.1544 7.77646C49.3457 9.18604 48.9413 10.7689 48.9413 12.5251C48.9413 14.2813 49.3457 15.8758 50.1544 17.3084C50.9863 18.718 52.1302 19.8272 53.586 20.636C55.0417 21.4448 56.6708 21.8491 58.4733 21.8491C61.1769 21.8491 63.453 20.8786 65.3016 18.9375L67.5546 21.1212C66.4455 22.3691 65.0937 23.3165 63.4992 23.9635C61.9279 24.6105 60.1948 24.934 58.3 24.934Z" fill="#83898F"/>
<path d="M74.1631 9.3709C74.7408 8.30794 75.5958 7.49917 76.7281 6.94458C77.8604 6.38999 79.2353 6.1127 80.8528 6.1127V9.33624C80.668 9.31313 80.4138 9.30158 80.0903 9.30158C78.2879 9.30158 76.8667 9.84461 75.8269 10.9307C74.8101 11.9936 74.3018 13.5188 74.3018 15.506V24.6567H70.9742V6.28601H74.1631V9.3709Z" fill="#83898F"/>
<path d="M100.348 15.5754C100.348 15.8295 100.325 16.1646 100.279 16.5806H85.374C85.582 18.1981 86.2868 19.5037 87.4884 20.4973C88.7131 21.4679 90.2267 21.9531 92.0291 21.9531C94.2243 21.9531 95.9921 21.2137 97.3323 19.7348L99.1694 21.8838C98.3375 22.8543 97.2977 23.5938 96.0499 24.1022C94.8251 24.6105 93.4502 24.8647 91.9251 24.8647C89.9841 24.8647 88.2625 24.4719 86.7605 23.6862C85.2585 22.8774 84.0916 21.7567 83.2597 20.324C82.4509 18.8913 82.0465 17.2738 82.0465 15.4714C82.0465 13.6921 82.4393 12.0861 83.225 10.6534C84.0338 9.2207 85.1314 8.11153 86.5179 7.32586C87.9275 6.51708 89.5103 6.1127 91.2665 6.1127C93.0227 6.1127 94.5825 6.51708 95.9459 7.32586C97.3324 8.11153 98.4069 9.2207 99.1694 10.6534C99.9551 12.0861 100.348 13.7267 100.348 15.5754ZM91.2665 8.9203C89.6721 8.9203 88.3318 9.40556 87.2458 10.3761C86.1828 11.3466 85.5589 12.6176 85.374 14.1889H97.159C96.9742 12.6407 96.3387 11.3813 95.2526 10.4108C94.1897 9.41712 92.861 8.9203 91.2665 8.9203Z" fill="#83898F"/>
<path d="M110.111 6.1127C112.652 6.1127 114.594 6.73661 115.934 7.98443C117.297 9.23225 117.979 11.0924 117.979 13.565V24.6567H114.825V22.2304C114.27 23.0854 113.473 23.744 112.433 24.2061C111.416 24.6452 110.203 24.8647 108.793 24.8647C106.737 24.8647 105.085 24.3679 103.837 23.3743C102.612 22.3806 102 21.075 102 19.4575C102 17.8399 102.589 16.5459 103.768 15.5754C104.946 14.5817 106.818 14.0849 109.383 14.0849H114.651V13.4263C114.651 11.9936 114.235 10.896 113.403 10.1335C112.572 9.3709 111.347 8.98962 109.729 8.98962C108.643 8.98962 107.58 9.17449 106.54 9.54421C105.501 9.89083 104.623 10.3645 103.906 10.9653L102.52 8.4697C103.467 7.70714 104.599 7.12944 105.917 6.73661C107.234 6.32067 108.632 6.1127 110.111 6.1127ZM109.348 22.2997C110.619 22.2997 111.717 22.0224 112.641 21.4679C113.565 20.8902 114.235 20.0814 114.651 19.0415V16.4766H109.521C106.702 16.4766 105.293 17.424 105.293 19.3188C105.293 20.2431 105.651 20.971 106.367 21.5025C107.083 22.034 108.077 22.2997 109.348 22.2997Z" fill="#83898F"/>
<path d="M133.426 23.5822C132.941 23.9982 132.34 24.3217 131.624 24.5528C130.907 24.7607 130.168 24.8647 129.405 24.8647C127.557 24.8647 126.124 24.3679 125.107 23.3743C124.091 22.3806 123.582 20.9595 123.582 19.1109V9.02428H120.463V6.28601H123.582V2.26524H126.91V6.28601H132.178V9.02428H126.91V18.9722C126.91 19.9659 127.152 20.7284 127.638 21.2599C128.146 21.7914 128.862 22.0571 129.787 22.0571C130.803 22.0571 131.67 21.7683 132.386 21.1906L133.426 23.5822Z" fill="#83898F"/>
<path d="M152.403 15.5754C152.403 15.8295 152.38 16.1646 152.334 16.5806H137.429C137.637 18.1981 138.342 19.5037 139.543 20.4973C140.768 21.4679 142.282 21.9531 144.084 21.9531C146.279 21.9531 148.047 21.2137 149.387 19.7348L151.224 21.8838C150.392 22.8543 149.353 23.5938 148.105 24.1022C146.88 24.6105 145.505 24.8647 143.98 24.8647C142.039 24.8647 140.317 24.4719 138.815 23.6862C137.313 22.8774 136.146 21.7567 135.315 20.324C134.506 18.8913 134.101 17.2738 134.101 15.4714C134.101 13.6921 134.494 12.0861 135.28 10.6534C136.089 9.2207 137.186 8.11153 138.573 7.32586C139.982 6.51708 141.565 6.1127 143.321 6.1127C145.078 6.1127 146.637 6.51708 148.001 7.32586C149.387 8.11153 150.462 9.2207 151.224 10.6534C152.01 12.0861 152.403 13.7267 152.403 15.5754ZM143.321 8.9203C141.727 8.9203 140.387 9.40556 139.301 10.3761C138.238 11.3466 137.614 12.6176 137.429 14.1889H149.214C149.029 12.6407 148.394 11.3813 147.308 10.4108C146.245 9.41712 144.916 8.9203 143.321 8.9203Z" fill="#83898F"/>
<path d="M159.172 9.3709C159.75 8.30794 160.605 7.49917 161.737 6.94458C162.87 6.38999 164.245 6.1127 165.862 6.1127V9.33624C165.677 9.31313 165.423 9.30158 165.1 9.30158C163.297 9.30158 161.876 9.84461 160.836 10.9307C159.819 11.9936 159.311 13.5188 159.311 15.506V24.6567H155.984V6.28601H159.172V9.3709Z" fill="#83898F"/>
<path d="M50.917 36.0902V44.5476H63.0833V47.5286H50.917V57.3378H47.4508V33.0746H64.5737V36.0902H50.917Z" fill="#83898F"/>
<path d="M73.9744 38.7938C76.5162 38.7938 78.4573 39.4177 79.7976 40.6655C81.1609 41.9134 81.8426 43.7735 81.8426 46.2461V57.3378H78.6884V54.9115C78.1338 55.7665 77.3366 56.4251 76.2967 56.8872C75.28 57.3263 74.0668 57.5458 72.6572 57.5458C70.6006 57.5458 68.9484 57.049 67.7006 56.0554C66.4759 55.0617 65.8635 53.7561 65.8635 52.1386C65.8635 50.521 66.4528 49.227 67.6313 48.2565C68.8098 47.2628 70.6815 46.766 73.2465 46.766H78.5151V46.1074C78.5151 44.6747 78.0991 43.5771 77.2672 42.8146C76.4354 42.052 75.2107 41.6707 73.5931 41.6707C72.507 41.6707 71.4441 41.8556 70.4042 42.2253C69.3644 42.5719 68.4863 43.0456 67.7699 43.6464L66.3835 41.1508C67.3309 40.3882 68.4632 39.8105 69.7803 39.4177C71.0975 39.0018 72.4955 38.7938 73.9744 38.7938ZM73.2118 54.9808C74.4828 54.9808 75.5804 54.7035 76.5047 54.149C77.429 53.5713 78.0991 52.7625 78.5151 51.7226V49.1577H73.3851C70.566 49.1577 69.1564 50.1051 69.1564 51.9999C69.1564 52.9242 69.5146 53.6521 70.2309 54.1836C70.9473 54.7151 71.9409 54.9808 73.2118 54.9808Z" fill="#83898F"/>
<path d="M102.879 38.9671L94.837 57.3378H91.4401L83.3986 38.9671H86.8648L93.1732 53.6984L99.6203 38.9671H102.879Z" fill="#83898F"/>
</svg>
