<svg width="23" height="24" viewBox="0 0 23 24" fill="none" xmlns="http://www.w3.org/2000/svg">
<path d="M11.4911 5.8177C8.22906 5.8177 5.58652 8.57219 5.58652 11.9694C5.58652 15.3679 8.22906 18.1224 11.4911 18.1224C14.7505 18.1224 17.3956 15.3679 17.3956 11.9694C17.3956 8.57219 14.7505 5.8177 11.4911 5.8177ZM11.4911 15.9667C9.37217 15.9667 7.65432 14.177 7.65432 11.9707C7.65432 9.76314 9.37217 7.97472 11.4911 7.97472C13.61 7.97472 15.3252 9.76314 15.3252 11.9707C15.3252 14.177 13.61 15.9667 11.4911 15.9667Z" fill="white"/>
<path d="M17.6306 7.02595C18.391 7.02595 19.0074 6.38372 19.0074 5.59148C19.0074 4.79925 18.391 4.15702 17.6306 4.15702C16.8702 4.15702 16.2538 4.79925 16.2538 5.59148C16.2538 6.38372 16.8702 7.02595 17.6306 7.02595Z" fill="white"/>
<path d="M22.3908 4.13307C21.7918 2.52428 20.572 1.25216 19.0279 0.630739C18.1351 0.280772 17.1912 0.0931469 16.2359 0.0718562C15.0059 0.0159679 14.6164 0 11.4974 0C8.3785 0 7.97873 -1.33843e-07 6.759 0.0718562C5.8062 0.0918162 4.86234 0.279441 3.96957 0.630739C2.42414 1.25216 1.20441 2.52428 0.606675 4.13307C0.270768 5.06454 0.0906819 6.04657 0.0715238 7.04192C0.0166037 8.32202 0 8.72788 0 11.9787C0 15.2282 -9.51596e-09 15.642 0.0715238 16.9155C0.0906819 17.9108 0.270768 18.8929 0.606675 19.8257C1.20569 21.4331 2.42542 22.7053 3.97085 23.328C4.85978 23.69 5.80364 23.8949 6.76155 23.9268C7.9915 23.9827 8.38105 24 11.5 24C14.6189 24 15.0187 24 16.2384 23.9268C17.1925 23.9069 18.1364 23.7179 19.0304 23.3693C20.5746 22.7452 21.7943 21.4744 22.3933 19.8656C22.7292 18.9341 22.9093 17.9521 22.9285 16.9568C22.9834 15.6766 23 15.2708 23 12.02C23 8.76913 23 8.35662 22.9285 7.08317C22.9119 6.07452 22.7331 5.07518 22.3908 4.13307ZM20.8351 16.817C20.8262 17.5835 20.6934 18.3433 20.4379 19.0632C20.0484 20.1104 19.2552 20.9381 18.2513 21.34C17.568 21.6048 16.8477 21.7432 16.1184 21.7538C14.905 21.8124 14.5628 21.827 11.4515 21.827C8.33763 21.827 8.0196 21.827 6.78326 21.7538C6.05653 21.7445 5.33363 21.6048 4.6516 21.34C3.64388 20.9395 2.84562 20.1118 2.45608 19.0632C2.20574 18.3526 2.07036 17.6008 2.05886 16.8423C2.00394 15.5782 1.99117 15.2216 1.99117 11.98C1.99117 8.73719 1.99117 8.40585 2.05886 7.11643C2.0678 6.34997 2.20063 5.59148 2.45608 4.87159C2.84562 3.82169 3.64388 2.99534 4.6516 2.59348C5.33363 2.33001 6.05653 2.19029 6.78326 2.17964C7.99789 2.12242 8.33891 2.10645 11.4515 2.10645C14.564 2.10645 14.8833 2.10645 16.1184 2.17964C16.8477 2.18896 17.568 2.32868 18.2513 2.59348C19.2552 2.99667 20.0484 3.82435 20.4379 4.87159C20.6882 5.58217 20.8236 6.334 20.8351 7.09248C20.89 8.35795 20.9041 8.71324 20.9041 11.9561C20.9041 15.1976 20.9041 15.5462 20.8492 16.8184H20.8351V16.817Z" fill="white"/>
</svg>
