<svg width="23" height="23" viewBox="0 0 23 23" fill="none" xmlns="http://www.w3.org/2000/svg">
<path d="M23 2.72263C22.1538 3.18446 21.2443 3.49657 20.2899 3.63691C21.264 2.91831 22.0123 1.78044 22.3646 0.424526C21.4528 1.08998 20.443 1.57317 19.3681 1.83351C18.5074 0.705044 17.2811 0 15.9239 0C13.3179 0 11.205 2.59964 11.205 5.80621C11.205 6.26128 11.2468 6.70445 11.3273 7.12946C7.40555 6.88728 3.92853 4.57569 1.60124 1.06275C1.19503 1.9203 0.962335 2.9177 0.962335 3.98183C0.962335 5.99629 1.79536 7.7735 3.06154 8.81482C2.2881 8.78451 1.56041 8.52339 0.92427 8.08851C0.923819 8.11276 0.923819 8.13699 0.923819 8.16148C0.923819 10.9748 2.55038 13.3215 4.709 13.8549C4.31307 13.9877 3.89619 14.0587 3.46584 14.0587C3.16178 14.0587 2.86618 14.0222 2.57801 13.9545C3.17851 16.2611 4.92114 17.94 6.98603 17.9867C5.37109 19.5442 3.33646 20.4724 1.12563 20.4724C0.744753 20.4724 0.369149 20.4448 0 20.3911C2.08825 22.0386 4.56861 23 7.23337 23C15.9128 23 20.6591 14.1524 20.6591 6.47948C20.6591 6.22778 20.6545 5.97736 20.6454 5.72828C21.5674 4.90963 22.3675 3.88703 23 2.72263Z" fill="#555E68"/>
</svg>
