<svg width="24" height="19" viewBox="0 0 24 19" fill="none" xmlns="http://www.w3.org/2000/svg">
<path d="M23.5118 2.98723C23.236 1.8238 22.4265 0.905804 21.3989 0.592573C19.521 0.00950188 12.0083 1.03007e-05 12.0083 1.03007e-05C12.0083 1.03007e-05 4.49682 -0.00948183 2.61775 0.547826C1.61046 0.858345 0.778251 1.79668 0.500048 2.95876C0.00479858 5.08222 1.75694e-06 9.48644 1.75694e-06 9.48644C1.75694e-06 9.48644 -0.00479483 13.9124 0.486857 16.0141C0.762662 17.1762 1.57209 18.0942 2.60096 18.4074C4.49802 18.9905 11.9903 19 11.9903 19C11.9903 19 19.503 19.0095 21.3809 18.4535C22.4073 18.1417 23.2204 17.225 23.4998 16.0629C23.9962 13.9408 23.9998 9.53797 23.9998 9.53797C23.9998 9.53797 24.0238 5.1107 23.5118 2.98723ZM9.60521 13.5666L9.6112 5.43071L15.8552 9.50542L9.60521 13.5666Z" fill="#555E68"/>
</svg>
